



<svg width="20.000000" height="20.000000" viewBox="0 0 20 20" fill="none" xmlns="http://www.w3.org/2000/svg" xmlns:xlink="http://www.w3.org/1999/xlink">
	<desc>
			Created with Pixso.
	</desc>
	<defs>
		<clipPath id="clip9_6169">
			<rect id="shopping-cart-2 1" rx="0.000000" width="19.000000" height="19.000000" transform="translate(0.500000 0.500000)" fill="white" fill-opacity="0"/>
		</clipPath>
	</defs>
	<rect id="shopping-cart-2 1" rx="0.000000" width="19.000000" height="19.000000" transform="translate(0.500000 0.500000)" fill="#FFFFFF" fill-opacity="0"/>
	<g clip-path="url(#clip9_6169)">
		<path id="Vector" d="M19.7 7.22C19.43 6.89 19.04 6.7 18.61 6.7L14.76 6.7L12.67 1.92C12.54 1.62 12.2 1.49 11.9 1.62C11.6 1.75 11.47 2.09 11.6 2.39L13.48 6.7L6.51 6.7L8.39 2.39C8.52 2.09 8.39 1.75 8.09 1.62C7.79 1.49 7.45 1.62 7.32 1.92L5.23 6.7L1.38 6.7C0.95 6.7 0.56 6.89 0.29 7.22C0.03 7.55 -0.06 7.97 0.03 8.37L2.09 17.36C2.23 17.98 2.78 18.42 3.44 18.42L16.55 18.42C17.21 18.42 17.76 17.98 17.9 17.36L19.96 8.37C20.05 7.97 19.96 7.55 19.7 7.22ZM16.55 17.25L3.44 17.25C3.34 17.25 3.25 17.18 3.23 17.09L1.17 8.11C1.16 8.04 1.18 7.99 1.21 7.95C1.23 7.92 1.29 7.87 1.38 7.87L4.72 7.87L4.57 8.23C4.44 8.52 4.57 8.87 4.87 9C4.94 9.03 5.02 9.05 5.1 9.05C5.33 9.05 5.54 8.92 5.64 8.7L6 7.87L13.99 7.87L14.35 8.7C14.45 8.92 14.66 9.05 14.89 9.05C14.97 9.05 15.05 9.03 15.12 9C15.42 8.87 15.55 8.52 15.42 8.23L15.27 7.87L18.61 7.87C18.7 7.87 18.76 7.92 18.78 7.95C18.81 7.99 18.83 8.04 18.82 8.11L16.76 17.09C16.74 17.18 16.65 17.25 16.55 17.25Z" fill="#6F73EE" fill-opacity="1.000000" fill-rule="nonzero"/>
		<path id="Vector" d="" fill="#6F73EE" fill-opacity="1.000000" fill-rule="evenodd"/>
		<path id="Vector" d="M6.48 10.41C6.16 10.41 5.89 10.68 5.89 11L5.89 15.3C5.89 15.62 6.16 15.88 6.48 15.88C6.8 15.88 7.07 15.62 7.07 15.3L7.07 11C7.07 10.68 6.8 10.41 6.48 10.41Z" fill="#6F73EE" fill-opacity="1.000000" fill-rule="nonzero"/>
		<path id="Vector" d="" fill="#6F73EE" fill-opacity="1.000000" fill-rule="evenodd"/>
		<path id="Vector" d="M10 10.41C9.67 10.41 9.41 10.68 9.41 11L9.41 15.3C9.41 15.62 9.67 15.88 10 15.88C10.32 15.88 10.58 15.62 10.58 15.3L10.58 11C10.58 10.68 10.32 10.41 10 10.41Z" fill="#6F73EE" fill-opacity="1.000000" fill-rule="nonzero"/>
		<path id="Vector" d="" fill="#6F73EE" fill-opacity="1.000000" fill-rule="evenodd"/>
		<path id="Vector" d="M13.51 10.41C13.19 10.41 12.92 10.68 12.92 11L12.92 15.3C12.92 15.62 13.19 15.88 13.51 15.88C13.83 15.88 14.1 15.62 14.1 15.3L14.1 11C14.1 10.68 13.83 10.41 13.51 10.41Z" fill="#6F73EE" fill-opacity="1.000000" fill-rule="nonzero"/>
		<path id="Vector" d="" fill="#6F73EE" fill-opacity="1.000000" fill-rule="evenodd"/>
	</g>
</svg>
