<svg width="20.000000" height="20.000000" viewBox="0 0 20 20" fill="none" xmlns="http://www.w3.org/2000/svg" xmlns:xlink="http://www.w3.org/1999/xlink">
	<desc>
			Created with Pixso.
	</desc>
	<defs>
		<clipPath id="clip6_5302">
			<rect id="icon-copyright" rx="0.000000" width="19.000000" height="19.000000" transform="translate(0.500000 0.500000)" fill="white" fill-opacity="0"/>
		</clipPath>
	</defs>
	<rect id="icon-copyright" rx="0.000000" width="19.000000" height="19.000000" transform="translate(0.500000 0.500000)" fill="#FFFFFF" fill-opacity="0"/>
	<g clip-path="url(#clip6_5302)">
		<path id="Vector" d="M10 18.33C5.39 18.33 1.66 14.6 1.66 10C1.66 5.39 5.39 1.66 10 1.66C14.6 1.66 18.33 5.39 18.33 10C18.33 14.6 14.6 18.33 10 18.33Z" stroke="#FFFFFF" stroke-opacity="1.000000" stroke-width="1.500000" stroke-linejoin="round"/>
		<path id="Vector" d="M12.5 8.14C12.5 8.14 11.47 6.66 9.75 6.66C8.03 6.66 6.66 8.14 6.66 10C6.66 11.85 8.03 13.33 9.75 13.33C11.47 13.33 12.5 11.85 12.5 11.85" stroke="#FFFFFF" stroke-opacity="1.000000" stroke-width="1.500000" stroke-linejoin="round" stroke-linecap="round"/>
	</g>
</svg>
