<svg width="133.831787" height="21.550781" viewBox="0 0 133.832 21.5508" fill="none" xmlns="http://www.w3.org/2000/svg" xmlns:xlink="http://www.w3.org/1999/xlink">
	<desc>
			Created with Pixso.
	</desc>
	<defs/>
	<path id="path12" d="M1.55 21.45L1.9 20.7L1.9 0.59L0.05 0.03C-0.07 0 0.03 0 0.09 0C1.42 0 10.83 0.03 10.83 0.03C14.25 0.01 17.1 1.31 19.26 3.25C21.36 5.13 22.82 7.61 22.82 10.77C22.82 13.26 21.93 14.98 20.95 16.46C17.31 21.96 10.38 21.54 10.38 21.54L1.6 21.54C1.56 21.54 1.53 21.49 1.55 21.45ZM93.28 0L93.28 21.55L110.15 21.55L110.15 20.41C105.83 20.41 101.51 20.41 97.19 20.41L97.19 11.1L109.11 11.1L109.11 9.91L97.17 9.91L97.17 1.13C101.5 1.13 105.82 1.13 110.15 1.13L110.15 0.02L93.28 0ZM113.85 21.55L113.85 0L125.43 0C126.58 0 133.03 0.81 133.03 5.25C133.03 8.94 129.34 10.77 125.96 10.77L121.54 10.77C121.54 10.77 121.47 14.55 127.75 15.82C129.7 16.21 131.18 16.74 132.08 17.52C134.08 19.26 133.82 21.55 133.82 21.55L128.32 21.55C127.61 20.33 125.92 18.66 124.65 17.53C122.92 16 120.28 13.08 120.28 10.07L124.63 10.07C125.15 10.03 126.72 10.03 127.89 8.69C128.49 8.01 128.77 6.98 128.77 5.43C128.77 0.66 123.6 0.87 123.4 0.87L117.57 0.87L117.57 21.55L113.85 21.55ZM73.04 0L77.04 0L77.04 20.44L89.97 20.44L89.97 21.54L73.04 21.55L73.04 0ZM43.95 21.55L45.19 21.55L48.99 14.91L62.29 14.91L66.03 21.53L70.68 21.53L58.22 0L53.38 0L55.3 1.71L43.95 21.55ZM49.49 14.05L55.69 3.21L61.8 14.05L49.49 14.05ZM25.32 0L25.32 21.55L42.19 21.55L42.19 20.41C37.88 20.41 33.56 20.41 29.24 20.41L29.24 11.1L41.16 11.1L41.16 9.91L29.22 9.91L29.22 1.13C33.54 1.13 37.87 1.13 42.19 1.13L42.19 0.02L25.32 0ZM5.81 0.49C7.93 0.49 18.53 0 18.53 10.77C18.53 17.16 14.51 20.65 10.2 20.65L5.9 20.65L5.81 0.49Z" fill="#000000" fill-opacity="1.000000" fill-rule="evenodd"/>
</svg>
