<svg width="17.000000" height="16.000000" viewBox="0 0 17 16" fill="none" xmlns="http://www.w3.org/2000/svg" xmlns:xlink="http://www.w3.org/1999/xlink">
	<desc>
			Created with Pixso.
	</desc>
	<defs/>
	<path id="Vector" d="M15.45 1.69C14.54 0.73 13.35 0.15 12.08 0.04C10.8 -0.07 9.54 0.31 8.51 1.11C7.43 0.26 6.08 -0.13 4.74 0.03C3.4 0.19 2.17 0.88 1.29 1.96C0.41 3.05 -0.05 4.44 0 5.87C0.05 7.3 0.61 8.66 1.57 9.66L6.85 15.27C7.29 15.74 7.89 16 8.51 16C9.13 16 9.72 15.74 10.17 15.27L15.45 9.66C16.44 8.6 17 7.17 17 5.68C17 4.18 16.44 2.75 15.45 1.69ZM14.25 8.42L8.97 14.02C8.91 14.09 8.83 14.14 8.76 14.17C8.68 14.21 8.59 14.22 8.51 14.22C8.42 14.22 8.34 14.21 8.26 14.17C8.18 14.14 8.11 14.09 8.05 14.02L2.77 8.39C2.1 7.67 1.73 6.7 1.73 5.69C1.73 4.67 2.1 3.7 2.77 2.98C3.45 2.27 4.36 1.87 5.32 1.87C6.27 1.87 7.19 2.27 7.87 2.98C7.95 3.06 8.04 3.13 8.15 3.18C8.25 3.22 8.36 3.25 8.47 3.25C8.59 3.25 8.7 3.22 8.8 3.18C8.9 3.13 9 3.06 9.08 2.98C9.76 2.27 10.67 1.87 11.63 1.87C12.58 1.87 13.5 2.27 14.18 2.98C14.85 3.69 15.24 4.66 15.25 5.67C15.27 6.68 14.9 7.66 14.25 8.39L14.25 8.42Z" fill="#BEBEBE" fill-opacity="1.000000" fill-rule="nonzero"/>
</svg>
