<svg width="22.843750" height="21.500000" viewBox="0 0 22.8438 21.5" fill="none" xmlns="http://www.w3.org/2000/svg" xmlns:xlink="http://www.w3.org/1999/xlink">
	<desc>
			Created with Pixso.
	</desc>
	<defs/>
	<path id="Vector" d="M20.76 2.27C19.54 0.98 17.94 0.2 16.23 0.06C14.52 -0.09 12.82 0.42 11.43 1.5C9.98 0.35 8.17 -0.17 6.37 0.04C4.57 0.25 2.91 1.18 1.73 2.64C0.55 4.09 -0.07 5.97 0 7.89C0.07 9.81 0.83 11.63 2.11 12.99L9.21 20.53C9.8 21.15 10.6 21.5 11.43 21.5C12.27 21.5 13.07 21.15 13.66 20.53L20.76 12.99C22.09 11.56 22.84 9.64 22.84 7.63C22.84 5.62 22.09 3.7 20.76 2.27ZM19.15 11.31L12.05 18.84C11.97 18.93 11.87 19 11.77 19.04C11.66 19.09 11.55 19.12 11.43 19.12C11.32 19.12 11.21 19.09 11.1 19.04C10.99 19 10.9 18.93 10.82 18.84L3.72 11.28C2.83 10.31 2.32 9 2.32 7.64C2.32 6.28 2.83 4.98 3.72 4.01C4.63 3.05 5.87 2.51 7.15 2.51C8.43 2.51 9.66 3.05 10.58 4.01C10.68 4.12 10.81 4.21 10.95 4.27C11.09 4.33 11.24 4.36 11.39 4.36C11.54 4.36 11.69 4.33 11.83 4.27C11.97 4.21 12.09 4.12 12.2 4.01C13.11 3.05 14.34 2.51 15.63 2.51C16.91 2.51 18.14 3.05 19.05 4.01C19.96 4.96 20.48 6.26 20.5 7.62C20.51 8.98 20.03 10.29 19.15 11.28L19.15 11.31Z" fill="#FFFFFF" fill-opacity="1.000000" fill-rule="nonzero"/>
</svg>
