
<svg width="25.000000" height="24.000000" viewBox="0 0 25 24" fill="none" xmlns="http://www.w3.org/2000/svg" xmlns:xlink="http://www.w3.org/1999/xlink">

	<desc>
			Created with Pixso.
	</desc>
	<defs/>
	<mask id="mask_132_2306" fill="white">
		<path id="Union" d="M21.25 4.25L2.25 4.25C1.14453 4.25 0.25 5.14545 0.25 6.25L0.25 20.25C0.25 21.3546 1.14453 22.25 2.25 22.25L21.25 22.25C22.3555 22.25 23.25 21.3546 23.25 20.25L23.25 6.25C23.25 5.14545 22.3555 4.25 21.25 4.25Z" clip-rule="evenodd" fill="" fill-opacity="1.000000" fill-rule="evenodd"/>
	</mask>
	<path id="Union" d="M21.25 4.5L2.25 4.5Q1.89453 4.5 1.56836 4.63745Q1.25586 4.77026 1.01172 5.01257Q0.769531 5.25488 0.636719 5.56891Q0.5 5.8938 0.5 6.25L0.5 20.25Q0.5 20.6062 0.636719 20.9311Q0.769531 21.2451 1.01172 21.4874Q1.25586 21.7298 1.56836 21.8626Q1.89453 22 2.25 22L21.25 22Q21.6055 22 21.9316 21.8626Q22.2441 21.7298 22.4883 21.4874Q22.7305 21.2451 22.8633 20.9311Q23 20.6062 23 20.25L23 6.25Q23 5.8938 22.8633 5.56891Q22.7305 5.25488 22.4883 5.01257Q22.2441 4.7702 21.9316 4.63745Q21.6055 4.5 21.25 4.5ZM21.25 4Q21.707 4 22.125 4.17694Q22.5293 4.34772 22.8418 4.659Q23.1523 4.97028 23.3223 5.37415Q23.5 5.79242 23.5 6.25L23.5 20.25Q23.5 20.7076 23.3223 21.1259Q23.1523 21.5297 22.8418 21.841Q22.5293 22.1523 22.125 22.3231Q21.707 22.5 21.25 22.5L2.25 22.5Q1.79297 22.5 1.375 22.3231Q0.970703 22.1523 0.658203 21.841Q0.347656 21.5297 0.177734 21.1259Q0 20.7076 0 20.25L0 6.25Q0 5.79242 0.177734 5.37415Q0.347656 4.97028 0.658203 4.659Q0.970703 4.34772 1.375 4.17694Q1.79297 4 2.25 4L21.25 4Z" fill="#000000" fill-opacity="1.000000" fill-rule="nonzero"/>
	<path id="Rectangle 58" d="M6.25 8.25L6.25 1.25C6.25 0.69 6.69 0.25 7.25 0.25L16.25 0.25C16.8 0.25 17.25 0.69 17.25 1.25L17.25 8.25" stroke="#000000" stroke-opacity="1.000000" stroke-width="0.500000" stroke-linejoin="round"/>

</svg>
