<svg width="25.000000" height="24.000000" viewBox="0 0 25 24" fill="none" xmlns="http://www.w3.org/2000/svg" xmlns:xlink="http://www.w3.org/1999/xlink">
	<desc>
			Created with Pixso.
	</desc>
	<defs/>
	<mask id="mask_12_3018" fill="white">
		<path id="Union" d="M22 5L3 5C1.89551 5 1 5.89545 1 7L1 21C1 22.1046 1.89551 23 3 23L22 23C23.1045 23 24 22.1046 24 21L24 7C24 5.89545 23.1045 5 22 5Z" clip-rule="evenodd" fill="" fill-opacity="1.000000" fill-rule="evenodd"/>
	</mask>
	<path id="Union" d="M22 6L3 6Q2.7959 6 2.61108 6.07819Q2.43188 6.15399 2.29297 6.29291Q2.15405 6.43176 2.07812 6.61108Q2 6.7959 2 7L2 21Q2 21.2041 2.07812 21.3889Q2.15405 21.5682 2.29297 21.7071Q2.43188 21.846 2.61108 21.9218Q2.7959 22 3 22L22 22Q22.2041 22 22.3889 21.9218Q22.5681 21.846 22.707 21.7071Q22.8459 21.5682 22.9219 21.3889Q23 21.2041 23 21L23 7Q23 6.7959 22.9219 6.61108Q22.8459 6.43176 22.707 6.29291Q22.5681 6.15399 22.3889 6.07819Q22.2041 6 22 6ZM22 4Q22.6096 4 23.168 4.23615Q23.7065 4.46393 24.1213 4.87866Q24.5361 5.2934 24.7639 5.83197Q25 6.39032 25 7L25 21Q25 21.6097 24.7639 22.168Q24.5361 22.7066 24.1213 23.1213Q23.7065 23.5361 23.168 23.7639Q22.6096 24 22 24L3 24Q2.39038 24 1.83203 23.7639Q1.29346 23.5361 0.878662 23.1213Q0.463867 22.7066 0.236084 22.168Q0 21.6097 0 21L0 7Q0 6.39032 0.236084 5.83197Q0.463867 5.2934 0.878662 4.87866Q1.29346 4.46393 1.83203 4.23615Q2.39038 4 3 4L22 4Z" fill="#FFFFFF" fill-opacity="1.000000" fill-rule="nonzero"/>
	<path id="Rectangle 58" d="M7 9L7 2C7 1.44 7.44 1 8 1L17 1C17.55 1 18 1.44 18 2L18 9" stroke="#FFFFFF" stroke-opacity="1.000000" stroke-width="2.000000" stroke-linejoin="round"/>
</svg>
