<svg xmlns="http://www.w3.org/2000/svg" viewBox="0 0 16 18" class="AccountIcon__AccountIconSVG-sc-1lv4etf-0 ejnzVa"><g fill="none" fill-rule="evenodd" stroke="none" stroke-width="1"><g fill="currentColor" transform="translate(-197 -47)"><g transform="translate(0 28)"><g transform="translate(196 19)"><g><g transform="translate(1)"><path d="M14.5 17l-13 .004v-1c0-1.945 0-3.264 2.003-3.795 1.005-.266 3.348-.203 4.497-.203s3.522-.08 4.503.203c2.066.595 1.997 1.85 1.997 3.795V17zM8 11.01c-1.191 0-3.973-.106-5.04.305-2.49.96-2.396 2.92-2.46 4.688V18h15v-1.996c-.064-1.768.03-3.728-2.46-4.688-1.067-.41-3.849-.305-5.04-.305z"></path><path fill-rule="nonzero" d="M8 0a4.5 4.5 0 110 9 4.5 4.5 0 010-9zm0 1a3.5 3.5 0 100 7 3.5 3.5 0 000-7z"></path></g></g></g></g></g></g></svg>