<svg width="14.333740" height="20.851624" viewBox="0 0 14.3337 20.8516" fill="none" xmlns="http://www.w3.org/2000/svg" xmlns:xlink="http://www.w3.org/1999/xlink">
	<desc>
			Created with Pixso.
	</desc>
	<defs/>
	<path id="Union" d="M10.5269 0.71936C7.13446 -0.967957 3.01648 0.414307 1.32916 3.80676C-0.243408 6.96857 0.850342 10.7605 3.75275 12.6276L0 20.1727L1.36499 20.8516L5.11774 13.3065C8.35791 14.4946 12.0418 13.0789 13.6144 9.91711C15.3017 6.52466 13.9194 2.40668 10.5269 0.71936ZM9.63629 2.51007C7.23279 1.31464 4.31531 2.29401 3.11987 4.69745C1.9245 7.10089 2.90381 10.0184 5.30725 11.2138C7.71075 12.4092 10.6282 11.4299 11.8236 9.02649C13.019 6.62299 12.0397 3.70551 9.63629 2.51007Z" clip-rule="evenodd" fill="#000000" fill-opacity="1.000000" fill-rule="evenodd"/>
</svg>
