<svg width="35.000000" height="35.000000" viewBox="0 0 35 35" fill="none" xmlns="http://www.w3.org/2000/svg" xmlns:xlink="http://www.w3.org/1999/xlink">
	<desc>
			Created with Pixso.
	</desc>
	<defs/>
	<rect id="Frame 17" rx="17.000000" width="34.000000" height="34.000000" transform="translate(0.500000 0.500000)" fill="#000000" fill-opacity="1.000000"/>
	<path id="Union" d="M15.45 20.38C18.69 21.56 22.37 20.15 23.94 16.99C25.63 13.59 24.25 9.48 20.85 7.79C17.46 6.1 13.34 7.48 11.66 10.88C10.08 14.04 11.18 17.83 14.08 19.7L10.33 27.24L11.69 27.92L15.45 20.38ZM22.15 16.1C20.96 18.5 18.04 19.48 15.64 18.28C13.23 17.09 12.25 14.17 13.45 11.77C14.64 9.36 17.56 8.38 19.96 9.58C22.37 10.77 23.35 13.69 22.15 16.1Z" fill="#FFFFFF" fill-opacity="1.000000" fill-rule="evenodd"/>
</svg>
