<svg width="14.816895" height="21.554504" viewBox="0 0 14.8169 21.5545" fill="none" xmlns="http://www.w3.org/2000/svg" xmlns:xlink="http://www.w3.org/1999/xlink">
	<desc>
			Created with Pixso.
	</desc>
	<defs/>
	<path id="Union" d="M10.8818 0.743591C7.37451 -1.00067 3.11768 0.428284 1.37354 3.93524C-0.252441 7.2038 0.878418 11.1239 3.87891 13.0539L0 20.8527L1.41113 21.5545L5.29004 13.7557C8.63965 14.9836 12.4478 13.5201 14.0732 10.2518C15.8174 6.74481 14.3887 2.48785 10.8818 0.743591ZM10.231 2.05219C7.44678 0.667419 4.06689 1.80188 2.68213 4.58606C1.29736 7.3703 2.43164 10.75 5.21582 12.1348C8 13.5196 11.3799 12.3851 12.7646 9.60089C14.1494 6.81665 13.0151 3.43701 10.231 2.05219Z" clip-rule="evenodd" fill="#AFAFAF" fill-opacity="1.000000" fill-rule="evenodd"/>
</svg>
