
<svg width="14.333984" height="20.851624" viewBox="0 0 14.334 20.8516" fill="none" xmlns="http://www.w3.org/2000/svg" xmlns:xlink="http://www.w3.org/1999/xlink">

	<desc>
			Created with Pixso.
	</desc>
	<defs/>
	<rect id="Frame 17" rx="17.000000" width="34.000000" height="34.000000" transform="translate(0.500000 0.500000)" fill="#000000" fill-opacity="1.000000"/>

	<path id="Union" d="M10.5273 0.71936C7.13477 -0.967957 3.01758 0.414307 1.33008 3.80676C-0.242188 6.96857 0.851562 10.7605 3.75391 12.6276L0 20.1727L1.36523 20.8516L5.11914 13.3065C8.35742 14.4946 12.043 13.0789 13.6152 9.91711C15.3027 6.52466 13.9199 2.40668 10.5273 0.71936ZM5.3418 12.8558C8.33398 13.923 11.7168 12.6087 13.168 9.69446C14.7324 6.54926 13.4492 2.73138 10.3047 1.16705C7.16016 -0.397339 3.3418 0.884216 1.77734 4.02948C0.328125 6.94373 1.32227 10.4354 3.97656 12.1769L4.07422 11.9826L5.43945 12.6615L5.3418 12.8558Z" clip-rule="evenodd" fill="#000000" fill-opacity="1.000000" fill-rule="evenodd"/>

</svg>
