
<svg width="36.000000" height="30.600098" viewBox="0 0 36 30.6001" fill="none" xmlns="http://www.w3.org/2000/svg" xmlns:xlink="http://www.w3.org/1999/xlink">

	<desc>
			Created with Pixso.
	</desc>
	<defs/>
	<path id="Vector" d="M35.04 0.57C34.29 -0.02 33.26 -0.17 32.35 0.18L1.63 11.77C0.28 12.29 -0.36 13.73 0.19 15C0.48 15.65 1.06 16.16 1.77 16.39L8.39 18.54L11.99 29.64C11.99 29.67 12.01 29.68 12.02 29.7C12.06 29.79 12.12 29.87 12.18 29.94C12.21 29.97 12.24 30 12.27 30.02C12.36 30.09 12.46 30.14 12.57 30.17C12.59 30.18 12.6 30.19 12.62 30.2L12.63 30.2L12.63 30.2C12.69 30.21 12.75 30.22 12.81 30.21C12.88 30.21 12.96 30.2 13.03 30.18C13.05 30.17 13.06 30.18 13.07 30.17C13.2 30.13 13.31 30.06 13.4 29.97C13.41 29.96 13.43 29.96 13.44 29.95L18.61 24.62L26.14 30.08C26.6 30.41 27.17 30.6 27.75 30.6C29 30.59 30.09 29.77 30.35 28.62L35.94 2.95C36.14 2.06 35.79 1.15 35.04 0.57ZM13.86 20.65L12.65 26.16L10.12 18.34L22.66 12.24L14.09 20.24C13.97 20.36 13.89 20.5 13.86 20.65ZM28.67 28.3C28.6 28.59 28.38 28.84 28.08 28.94C27.78 29.04 27.44 29 27.19 28.81L19.03 22.9C18.67 22.64 18.17 22.69 17.87 23L14.28 26.7L15.49 21.21L27.81 9.69C28.15 9.37 28.15 8.87 27.81 8.55C27.55 8.31 27.14 8.25 26.81 8.41L9.04 17.06L2.33 14.88C1.96 14.76 1.71 14.45 1.71 14.09C1.69 13.72 1.92 13.39 2.28 13.25L32.99 1.66C33.31 1.54 33.68 1.59 33.95 1.8C34.21 2 34.33 2.32 34.26 2.63L28.67 28.3Z" fill="#000000" fill-opacity="1.000000" fill-rule="nonzero"/>
</svg>
