<svg width="24.648438" height="25.000000" viewBox="0 0 24.6484 25" fill="none" xmlns="http://www.w3.org/2000/svg" xmlns:xlink="http://www.w3.org/1999/xlink">
	<desc>
			Created with Pixso.
	</desc>
	<defs/>
	<path id="Vector" d="M14.08 0L10.56 0C8.61 0 7.04 1.57 7.04 3.52L0 3.52L0 5.28L1.75 5.28L1.75 21.56C1.75 23.46 3.29 25 5.19 25L19.45 25C21.34 25 22.88 23.46 22.88 21.56L22.88 5.28L24.64 5.28L24.64 3.52L17.6 3.52C17.6 1.57 16.02 0 14.08 0ZM14.08 6.16L3.52 6.16L3.52 21.56C3.52 22.49 4.26 23.23 5.19 23.23L19.45 23.23C20.37 23.23 21.12 22.49 21.12 21.56L21.12 6.16L14.08 6.16ZM15.84 3.52C15.84 2.54 15.05 1.76 14.08 1.76L10.56 1.76C9.59 1.76 8.8 2.54 8.8 3.52L15.84 3.52ZM7.92 19.36L7.92 8.8L9.68 8.8L9.68 19.36L7.92 19.36ZM14.96 19.36L14.96 8.8L16.72 8.8L16.72 19.36L14.96 19.36Z" fill="#000000" fill-opacity="1.000000" fill-rule="evenodd"/>
</svg>
