<svg width="35.643555" height="35.643555" viewBox="0 0 35.6436 35.6436" fill="none" xmlns="http://www.w3.org/2000/svg" xmlns:xlink="http://www.w3.org/1999/xlink">
	<desc>
			Created with Pixso.
	</desc>
	<defs/>
	<path id="Vector" d="M2.5 2.5C0 5.01 0 9.04 0 17.1L0 18.53C0 26.6 0 30.63 2.5 33.13C5.01 35.64 9.04 35.64 17.1 35.64L18.53 35.64C26.59 35.64 30.63 35.64 33.13 33.13C35.64 30.63 35.64 26.6 35.64 18.53L35.64 17.1C35.64 9.04 35.64 5.01 33.13 2.5C30.63 0 26.59 0 18.53 0L17.1 0C9.04 0 5.01 0 2.5 2.5ZM6.01 10.84C6.2 20.1 10.84 25.67 18.96 25.67L19.42 25.67L19.42 20.37C22.41 20.67 24.66 22.85 25.57 25.67L29.79 25.67C28.63 21.46 25.58 19.12 23.68 18.23C25.58 17.13 28.26 14.46 28.9 10.84L25.06 10.84C24.23 13.78 21.77 16.45 19.42 16.7L19.42 10.84L15.59 10.84L15.59 21.11C13.21 20.52 10.21 17.64 10.08 10.84L6.01 10.84Z" fill="#000000" fill-opacity="1.000000" fill-rule="evenodd"/>

</svg>
